<?xml version="1.0" standalone="no"?>
<!DOCTYPE svg PUBLIC "-//W3C//DTD SVG 20010904//EN"
 "http://www.w3.org/TR/2001/REC-SVG-20010904/DTD/svg10.dtd">
<svg version="1.0" xmlns="http://www.w3.org/2000/svg"
 width="2160.000000pt" height="923.000000pt" viewBox="0 0 2160.000000 923.000000"
 preserveAspectRatio="xMidYMid meet">

<g transform="translate(0.000000,923.000000) scale(0.100000,-0.100000)"
fill="#000000" stroke="none">
<path d="M19670 8594 c-1353 -56 -2765 -396 -5110 -1234 -157 -56 -346 -123
-420 -150 -127 -45 -1859 -673 -2000 -725 -36 -13 -135 -48 -220 -78 -85 -30
-231 -82 -325 -115 -733 -260 -1761 -597 -2500 -821 -1434 -433 -2411 -637
-3475 -725 -561 -47 -1220 -49 -1705 -5 -1325 119 -2426 502 -3340 1163 -148
106 -327 253 -455 372 l-105 97 -3 -564 -2 -564 77 -73 c373 -348 795 -637
1288 -882 302 -151 494 -230 810 -335 1516 -505 3328 -511 5445 -19 462 107
1316 348 1930 544 14 4 147 46 295 93 474 150 1624 540 1965 665 30 11 125 45
210 75 236 84 861 310 1400 507 955 350 1872 672 2400 843 1610 522 2773 763
3840 796 248 8 682 1 830 -14 387 -37 623 -73 903 -135 98 -22 183 -40 188
-40 5 0 9 226 9 564 l0 564 -22 4 c-13 3 -97 21 -188 41 -311 68 -571 106
-893 132 -186 15 -662 26 -827 19z"/>
<path d="M19550 7319 c-164 -9 -527 -43 -645 -59 -261 -37 -549 -83 -740 -120
-352 -68 -968 -220 -1335 -330 -52 -15 -151 -45 -220 -65 -678 -200 -1966
-650 -3445 -1205 -71 -27 -236 -88 -365 -135 -129 -48 -302 -111 -385 -142
-958 -354 -2264 -800 -2995 -1023 -985 -300 -1408 -417 -1990 -550 -2177 -497
-4045 -515 -5520 -52 -705 221 -1344 571 -1795 983 -38 35 -78 70 -87 78 -17
13 -18 -100 -18 -2343 l0 -2356 10795 0 10795 0 -2 3567 -3 3567 -30 8 c-128
34 -504 104 -715 133 -329 44 -946 65 -1300 44z"/>
<path d="M11110 6710 c-1503 -502 -2985 -864 -4320 -1055 -135 -19 -283 -39
-330 -44 -496 -56 -647 -70 -975 -90 -385 -24 -921 -31 -1265 -17 -899 37
-1693 174 -2350 406 -388 137 -742 311 -985 485 -44 32 -71 47 -60 34 60 -71
133 -143 247 -243 382 -336 822 -584 1353 -763 1260 -425 2977 -400 5035 73
908 209 1913 515 2850 869 340 128 941 373 959 391 9 9 -21 0 -159 -46z"/>
</g>
</svg>
