<?xml version="1.0" standalone="no"?>
<!DOCTYPE svg PUBLIC "-//W3C//DTD SVG 20010904//EN"
 "http://www.w3.org/TR/2001/REC-SVG-20010904/DTD/svg10.dtd">
<svg version="1.0" xmlns="http://www.w3.org/2000/svg"
 width="2160.000000pt" height="513.000000pt" viewBox="0 0 2160.000000 513.000000"
 preserveAspectRatio="xMidYMid meet">

<g transform="translate(0.000000,513.000000) scale(0.100000,-0.100000)"
fill="#000000" stroke="none">
<path d="M10 3156 c0 -1081 3 -1967 8 -1969 17 -11 382 -69 577 -92 309 -36
454 -45 820 -52 1139 -20 2397 179 4140 657 537 147 1240 353 2095 615 2057
629 3060 917 4225 1210 1409 354 2411 551 3410 670 1112 133 2204 150 3130 49
1245 -135 2327 -492 3073 -1014 l112 -79 0 985 0 984 -10795 0 -10795 0 0
-1964z"/>
<path d="M16530 3994 c-1485 -58 -2632 -247 -4800 -790 -1005 -252 -1655 -428
-3375 -918 -1570 -446 -2115 -595 -2830 -771 -1228 -303 -2207 -473 -3080
-535 -323 -23 -474 -28 -840 -25 -480 4 -773 25 -1160 81 -174 25 -386 61
-417 70 -17 5 -18 -19 -18 -414 l0 -420 63 -15 c96 -24 358 -75 502 -96 724
-110 1511 -107 2365 10 617 84 1305 232 2065 444 802 223 1673 507 3395 1105
2079 722 3331 1122 4635 1479 1238 339 2237 512 3289 571 379 21 1061 11 1416
-20 1241 -111 2314 -456 3179 -1024 236 -155 497 -355 634 -485 l47 -45 -1
249 0 250 -45 32 c-838 612 -1905 1006 -3184 1177 -441 59 -835 85 -1355 90
-220 2 -438 2 -485 0z"/>
</g>
</svg>
